<mxfile host="Electron" agent="Mozilla/5.0 (Windows NT 10.0; Win64; x64) AppleWebKit/537.36 (KHTML, like Gecko) draw.io/26.0.16 Chrome/132.0.6834.196 Electron/34.2.0 Safari/537.36" version="26.0.16">
  <diagram name="Page-1" id="iJdfqi7TyyQYNWX590Ah">
    <mxGraphModel dx="1855" dy="1010" grid="1" gridSize="10" guides="1" tooltips="1" connect="1" arrows="1" fold="1" page="1" pageScale="1" pageWidth="1600" pageHeight="900" math="0" shadow="0">
      <root>
        <mxCell id="0" />
        <mxCell id="1" parent="0" />
        <mxCell id="gfYP4dWiBDTwcpl1m-aG-19" value="" style="rounded=1;whiteSpace=wrap;html=1;fillColor=none;dashed=1;" parent="1" vertex="1">
          <mxGeometry x="1000" y="200" width="828" height="628" as="geometry" />
        </mxCell>
        <mxCell id="MD6ekfCmpJkhsAlaI6PO-1" value="&lt;font style=&quot;font-size: 37px;&quot;&gt;Integration&amp;nbsp; Model &lt;/font&gt;&lt;font size=&quot;1&quot; style=&quot;&quot;&gt;(how to tabels are related)&lt;/font&gt;" style="text;html=1;align=center;verticalAlign=middle;whiteSpace=wrap;rounded=0;fontStyle=1" parent="1" vertex="1">
          <mxGeometry x="20" y="40" width="500" height="50" as="geometry" />
        </mxCell>
        <mxCell id="MD6ekfCmpJkhsAlaI6PO-2" value="crm_cust_info" style="swimlane;fontStyle=0;childLayout=stackLayout;horizontal=1;startSize=30;horizontalStack=0;resizeParent=1;resizeParentMax=0;resizeLast=0;collapsible=1;marginBottom=0;whiteSpace=wrap;html=1;rounded=1;fillColor=#dae8fc;strokeColor=#6c8ebf;fontSize=25;" parent="1" vertex="1">
          <mxGeometry x="562" y="581" width="220" height="167" as="geometry" />
        </mxCell>
        <mxCell id="MD6ekfCmpJkhsAlaI6PO-3" value="cst_id&lt;div&gt;cst_key&lt;/div&gt;" style="text;strokeColor=none;fillColor=none;align=left;verticalAlign=middle;spacingLeft=4;spacingRight=4;overflow=hidden;points=[[0,0.5],[1,0.5]];portConstraint=eastwest;rotatable=0;whiteSpace=wrap;html=1;fontSize=25;rounded=1;" parent="MD6ekfCmpJkhsAlaI6PO-2" vertex="1">
          <mxGeometry y="30" width="220" height="90" as="geometry" />
        </mxCell>
        <mxCell id="zBULZXj73o6GFWgTDGym-3" value="&lt;span style=&quot;font-size: 20px;&quot;&gt;Customer&lt;/span&gt;" style="text;html=1;strokeColor=#36393d;fillColor=#ffff88;align=center;verticalAlign=middle;whiteSpace=wrap;overflow=hidden;rounded=0;swimlaneLine=0;" vertex="1" parent="MD6ekfCmpJkhsAlaI6PO-2">
          <mxGeometry y="120" width="220" height="47" as="geometry" />
        </mxCell>
        <mxCell id="MD6ekfCmpJkhsAlaI6PO-7" value="&lt;font style=&quot;font-size: 17px;&quot;&gt;Customer information&lt;/font&gt;" style="text;html=1;align=center;verticalAlign=middle;whiteSpace=wrap;rounded=0;" parent="1" vertex="1">
          <mxGeometry x="522" y="488" width="280" height="30" as="geometry" />
        </mxCell>
        <mxCell id="MD6ekfCmpJkhsAlaI6PO-8" value="crm_prd_info" style="swimlane;fontStyle=0;childLayout=stackLayout;horizontal=1;startSize=30;horizontalStack=0;resizeParent=1;resizeParentMax=0;resizeLast=0;collapsible=1;marginBottom=0;whiteSpace=wrap;html=1;rounded=1;fillColor=#dae8fc;strokeColor=#6c8ebf;fontSize=25;swimlaneLine=0;" parent="1" vertex="1">
          <mxGeometry x="552" y="248" width="220" height="90" as="geometry" />
        </mxCell>
        <mxCell id="MD6ekfCmpJkhsAlaI6PO-9" value="prd_key" style="text;strokeColor=none;fillColor=none;align=left;verticalAlign=middle;spacingLeft=4;spacingRight=4;overflow=hidden;points=[[0,0.5],[1,0.5]];portConstraint=eastwest;rotatable=0;whiteSpace=wrap;html=1;fontSize=25;rounded=1;sketch=1;curveFitting=1;jiggle=2;swimlaneLine=0;" parent="MD6ekfCmpJkhsAlaI6PO-8" vertex="1">
          <mxGeometry y="30" width="220" height="60" as="geometry" />
        </mxCell>
        <mxCell id="MD6ekfCmpJkhsAlaI6PO-10" value="&lt;font style=&quot;font-size: 17px;&quot;&gt;Current &amp;amp;history product&amp;nbsp; information&lt;/font&gt;" style="text;html=1;align=center;verticalAlign=middle;whiteSpace=wrap;rounded=0;" parent="1" vertex="1">
          <mxGeometry x="522" y="218" width="280" height="20" as="geometry" />
        </mxCell>
        <mxCell id="MD6ekfCmpJkhsAlaI6PO-11" value="crm_sales_details" style="swimlane;fontStyle=0;childLayout=stackLayout;horizontal=1;startSize=30;horizontalStack=0;resizeParent=1;resizeParentMax=0;resizeLast=0;collapsible=1;marginBottom=0;whiteSpace=wrap;html=1;rounded=1;fillColor=#dae8fc;strokeColor=#6c8ebf;fontSize=25;" parent="1" vertex="1">
          <mxGeometry x="133" y="377" width="220" height="130" as="geometry" />
        </mxCell>
        <mxCell id="MD6ekfCmpJkhsAlaI6PO-12" value="prd_key" style="text;strokeColor=none;fillColor=none;align=left;verticalAlign=middle;spacingLeft=4;spacingRight=4;overflow=hidden;points=[[0,0.5],[1,0.5]];portConstraint=eastwest;rotatable=0;whiteSpace=wrap;html=1;fontSize=25;rounded=1;" parent="MD6ekfCmpJkhsAlaI6PO-11" vertex="1">
          <mxGeometry y="30" width="220" height="50" as="geometry" />
        </mxCell>
        <mxCell id="MD6ekfCmpJkhsAlaI6PO-14" value="&amp;nbsp;cst_id" style="text;strokeColor=none;fillColor=none;align=left;verticalAlign=middle;spacingLeft=4;spacingRight=4;overflow=hidden;points=[[0,0.5],[1,0.5]];portConstraint=eastwest;rotatable=0;whiteSpace=wrap;html=1;fontSize=25;rounded=1;" parent="MD6ekfCmpJkhsAlaI6PO-11" vertex="1">
          <mxGeometry y="80" width="220" height="50" as="geometry" />
        </mxCell>
        <mxCell id="MD6ekfCmpJkhsAlaI6PO-13" value="&lt;span style=&quot;font-size: 17px;&quot;&gt;Transactional Records about Sales &amp;amp; orders&lt;/span&gt;" style="text;html=1;align=center;verticalAlign=middle;whiteSpace=wrap;rounded=0;" parent="1" vertex="1">
          <mxGeometry x="103" y="341" width="260" height="20" as="geometry" />
        </mxCell>
        <mxCell id="MD6ekfCmpJkhsAlaI6PO-15" style="edgeStyle=orthogonalEdgeStyle;rounded=0;orthogonalLoop=1;jettySize=auto;html=1;entryX=0;entryY=0.5;entryDx=0;entryDy=0;" parent="1" source="MD6ekfCmpJkhsAlaI6PO-14" target="MD6ekfCmpJkhsAlaI6PO-3" edge="1">
          <mxGeometry relative="1" as="geometry" />
        </mxCell>
        <mxCell id="MD6ekfCmpJkhsAlaI6PO-16" style="edgeStyle=orthogonalEdgeStyle;rounded=0;orthogonalLoop=1;jettySize=auto;html=1;" parent="1" source="MD6ekfCmpJkhsAlaI6PO-12" target="MD6ekfCmpJkhsAlaI6PO-9" edge="1">
          <mxGeometry relative="1" as="geometry" />
        </mxCell>
        <mxCell id="gfYP4dWiBDTwcpl1m-aG-1" value="erp_cust_az12" style="swimlane;fontStyle=0;childLayout=stackLayout;horizontal=1;startSize=30;horizontalStack=0;resizeParent=1;resizeParentMax=0;resizeLast=0;collapsible=1;marginBottom=0;whiteSpace=wrap;html=1;rounded=1;fillColor=#ffe6cc;strokeColor=#d79b00;fontSize=25;" parent="1" vertex="1">
          <mxGeometry x="1318" y="453" width="220" height="117" as="geometry" />
        </mxCell>
        <mxCell id="gfYP4dWiBDTwcpl1m-aG-2" value="cid" style="text;strokeColor=none;fillColor=none;align=left;verticalAlign=middle;spacingLeft=4;spacingRight=4;overflow=hidden;points=[[0,0.5],[1,0.5]];portConstraint=eastwest;rotatable=0;whiteSpace=wrap;html=1;fontSize=25;rounded=1;" parent="gfYP4dWiBDTwcpl1m-aG-1" vertex="1">
          <mxGeometry y="30" width="220" height="40" as="geometry" />
        </mxCell>
        <mxCell id="zBULZXj73o6GFWgTDGym-4" value="&lt;span style=&quot;font-size: 20px;&quot;&gt;Customer&lt;/span&gt;" style="text;html=1;strokeColor=#36393d;fillColor=#ffff88;align=center;verticalAlign=middle;whiteSpace=wrap;overflow=hidden;rounded=0;swimlaneLine=0;" vertex="1" parent="gfYP4dWiBDTwcpl1m-aG-1">
          <mxGeometry y="70" width="220" height="47" as="geometry" />
        </mxCell>
        <mxCell id="gfYP4dWiBDTwcpl1m-aG-3" value="&lt;span style=&quot;font-size: 17px;&quot;&gt;Extra Customer Information (Birthdates)&lt;/span&gt;" style="text;html=1;align=center;verticalAlign=middle;whiteSpace=wrap;rounded=0;" parent="1" vertex="1">
          <mxGeometry x="1269" y="423" width="320" height="20" as="geometry" />
        </mxCell>
        <mxCell id="gfYP4dWiBDTwcpl1m-aG-4" style="edgeStyle=orthogonalEdgeStyle;rounded=0;orthogonalLoop=1;jettySize=auto;html=1;entryX=0.987;entryY=0.749;entryDx=0;entryDy=0;entryPerimeter=0;" parent="1" source="gfYP4dWiBDTwcpl1m-aG-2" target="MD6ekfCmpJkhsAlaI6PO-3" edge="1">
          <mxGeometry relative="1" as="geometry" />
        </mxCell>
        <mxCell id="gfYP4dWiBDTwcpl1m-aG-5" value="erp_loc_a101" style="swimlane;fontStyle=0;childLayout=stackLayout;horizontal=1;startSize=30;horizontalStack=0;resizeParent=1;resizeParentMax=0;resizeLast=0;collapsible=1;marginBottom=0;whiteSpace=wrap;html=1;rounded=1;fillColor=#ffe6cc;strokeColor=#d79b00;fontSize=25;" parent="1" vertex="1">
          <mxGeometry x="1318" y="678" width="220" height="70" as="geometry" />
        </mxCell>
        <mxCell id="gfYP4dWiBDTwcpl1m-aG-6" value="cid" style="text;strokeColor=none;fillColor=none;align=left;verticalAlign=middle;spacingLeft=4;spacingRight=4;overflow=hidden;points=[[0,0.5],[1,0.5]];portConstraint=eastwest;rotatable=0;whiteSpace=wrap;html=1;fontSize=25;rounded=1;" parent="gfYP4dWiBDTwcpl1m-aG-5" vertex="1">
          <mxGeometry y="30" width="220" height="40" as="geometry" />
        </mxCell>
        <mxCell id="gfYP4dWiBDTwcpl1m-aG-7" value="&lt;span style=&quot;font-size: 17px;&quot;&gt;Location of the Customer (Country)&lt;/span&gt;" style="text;html=1;align=center;verticalAlign=middle;whiteSpace=wrap;rounded=0;" parent="1" vertex="1">
          <mxGeometry x="1278" y="648" width="320" height="20" as="geometry" />
        </mxCell>
        <mxCell id="gfYP4dWiBDTwcpl1m-aG-8" style="edgeStyle=orthogonalEdgeStyle;rounded=0;orthogonalLoop=1;jettySize=auto;html=1;entryX=0.981;entryY=0.762;entryDx=0;entryDy=0;entryPerimeter=0;" parent="1" source="gfYP4dWiBDTwcpl1m-aG-6" target="MD6ekfCmpJkhsAlaI6PO-3" edge="1">
          <mxGeometry relative="1" as="geometry" />
        </mxCell>
        <mxCell id="gfYP4dWiBDTwcpl1m-aG-9" value="erp_px_cat_g1v2" style="swimlane;fontStyle=0;childLayout=stackLayout;horizontal=1;startSize=30;horizontalStack=0;resizeParent=1;resizeParentMax=0;resizeLast=0;collapsible=1;marginBottom=0;whiteSpace=wrap;html=1;rounded=1;fillColor=#ffe6cc;strokeColor=#d79b00;fontSize=25;swimlaneLine=1;" parent="1" vertex="1">
          <mxGeometry x="1327" y="248" width="220" height="90" as="geometry" />
        </mxCell>
        <mxCell id="gfYP4dWiBDTwcpl1m-aG-10" value="id" style="text;strokeColor=none;fillColor=none;align=left;verticalAlign=middle;spacingLeft=4;spacingRight=4;overflow=hidden;points=[[0,0.5],[1,0.5]];portConstraint=eastwest;rotatable=0;whiteSpace=wrap;html=1;fontSize=25;rounded=1;swimlaneLine=1;" parent="gfYP4dWiBDTwcpl1m-aG-9" vertex="1">
          <mxGeometry y="30" width="220" height="60" as="geometry" />
        </mxCell>
        <mxCell id="gfYP4dWiBDTwcpl1m-aG-12" value="&lt;span style=&quot;font-size: 17px;&quot;&gt;Product Categories&lt;/span&gt;" style="text;html=1;align=center;verticalAlign=middle;whiteSpace=wrap;rounded=0;" parent="1" vertex="1">
          <mxGeometry x="1267" y="218" width="320" height="20" as="geometry" />
        </mxCell>
        <mxCell id="gfYP4dWiBDTwcpl1m-aG-18" value="&lt;font style=&quot;font-size: 30px;&quot;&gt;CRM&lt;/font&gt;" style="rounded=1;whiteSpace=wrap;html=1;fillColor=#dae8fc;strokeColor=#6c8ebf;" parent="1" vertex="1">
          <mxGeometry x="380" y="130" width="210" height="60" as="geometry" />
        </mxCell>
        <mxCell id="gfYP4dWiBDTwcpl1m-aG-20" value="&lt;span style=&quot;font-size: 30px;&quot;&gt;ERP&lt;/span&gt;" style="rounded=1;whiteSpace=wrap;html=1;fillColor=#ffe6cc;strokeColor=#d79b00;" parent="1" vertex="1">
          <mxGeometry x="1310" y="130" width="213" height="60" as="geometry" />
        </mxCell>
        <mxCell id="zBULZXj73o6GFWgTDGym-2" value="&lt;span style=&quot;font-size: 20px;&quot;&gt;Product&lt;/span&gt;" style="text;html=1;strokeColor=default;fillColor=#f8cecc;align=center;verticalAlign=middle;whiteSpace=wrap;overflow=hidden;rounded=0;swimlaneLine=0;" vertex="1" parent="1">
          <mxGeometry x="1328" y="327.5" width="220" height="47" as="geometry" />
        </mxCell>
        <mxCell id="zBULZXj73o6GFWgTDGym-1" value="&lt;span style=&quot;font-size: 20px;&quot;&gt;Product&lt;/span&gt;" style="text;html=1;strokeColor=default;fillColor=#f8cecc;align=center;verticalAlign=middle;whiteSpace=wrap;overflow=hidden;rounded=0;swimlaneLine=0;" vertex="1" parent="1">
          <mxGeometry x="552" y="330" width="220" height="47" as="geometry" />
        </mxCell>
        <mxCell id="zBULZXj73o6GFWgTDGym-5" value="&lt;span style=&quot;font-size: 20px;&quot;&gt;Customer&lt;/span&gt;" style="text;html=1;strokeColor=#36393d;fillColor=#ffff88;align=center;verticalAlign=middle;whiteSpace=wrap;overflow=hidden;rounded=0;swimlaneLine=0;" vertex="1" parent="1">
          <mxGeometry x="1319" y="743" width="220" height="47" as="geometry" />
        </mxCell>
        <mxCell id="zBULZXj73o6GFWgTDGym-6" style="edgeStyle=orthogonalEdgeStyle;rounded=0;orthogonalLoop=1;jettySize=auto;html=1;entryX=0;entryY=0.5;entryDx=0;entryDy=0;" edge="1" parent="1" source="MD6ekfCmpJkhsAlaI6PO-9" target="gfYP4dWiBDTwcpl1m-aG-10">
          <mxGeometry relative="1" as="geometry" />
        </mxCell>
        <mxCell id="zBULZXj73o6GFWgTDGym-7" value="&lt;span style=&quot;font-size: 20px;&quot;&gt;Sales&lt;/span&gt;" style="text;html=1;strokeColor=#9673a6;fillColor=#e1d5e7;align=center;verticalAlign=middle;whiteSpace=wrap;overflow=hidden;rounded=1;swimlaneLine=0;" vertex="1" parent="1">
          <mxGeometry x="133" y="500" width="220" height="47" as="geometry" />
        </mxCell>
        <mxCell id="gfYP4dWiBDTwcpl1m-aG-17" value="" style="rounded=1;whiteSpace=wrap;html=1;fillColor=none;dashed=1;" parent="1" vertex="1">
          <mxGeometry x="50" y="200" width="800" height="608" as="geometry" />
        </mxCell>
      </root>
    </mxGraphModel>
  </diagram>
</mxfile>
